<mxfile host="app.diagrams.net" agent="Mozilla/5.0 (Windows NT 10.0; Win64; x64) AppleWebKit/537.36 (KHTML, like Gecko) Chrome/134.0.0.0 Safari/537.36" version="26.2.1">
  <diagram name="Seite-1" id="p0hG2UImab14i4DwQpiM">
    <mxGraphModel>
      <root>
        <mxCell id="0" />
        <mxCell id="1" parent="0" />
        <mxCell id="2" value="Start" style="ellipse;aspect=fixed;strokeWidth=2;whiteSpace=wrap;" vertex="1" parent="1">
          <mxGeometry x="114" y="8" width="50" height="50" as="geometry" />
        </mxCell>
        <mxCell id="3" value="Decision 1" style="shape=hexagon;perimeter=hexagonPerimeter2;fixedSize=1;strokeWidth=2;whiteSpace=wrap;" vertex="1" parent="1">
          <mxGeometry x="85" y="131" width="107" height="39" as="geometry" />
        </mxCell>
        <mxCell id="4" value="Round 1" style="rounded=1;arcSize=20;strokeWidth=2" vertex="1" parent="1">
          <mxGeometry x="28" y="243" width="87" height="54" as="geometry" />
        </mxCell>
        <mxCell id="5" value="Decision 2" style="rhombus;strokeWidth=2;whiteSpace=wrap;" vertex="1" parent="1">
          <mxGeometry x="8" y="347" width="127" height="127" as="geometry" />
        </mxCell>
        <mxCell id="6" value="Round 2" style="rounded=1;arcSize=20;strokeWidth=2" vertex="1" parent="1">
          <mxGeometry x="28" y="547" width="87" height="54" as="geometry" />
        </mxCell>
        <mxCell id="7" value="Round 3" style="rounded=1;arcSize=20;strokeWidth=2" vertex="1" parent="1">
          <mxGeometry x="96" y="674" width="87" height="54" as="geometry" />
        </mxCell>
        <mxCell id="8" value="End" style="ellipse;aspect=fixed;strokeWidth=2;whiteSpace=wrap;" vertex="1" parent="1">
          <mxGeometry x="158" y="801" width="41" height="41" as="geometry" />
        </mxCell>
        <mxCell id="9" value="Condition 1" style="curved=1;startArrow=none;endArrow=block;exitX=0.5;exitY=1;entryX=0.5;entryY=0;" edge="1" parent="1" source="2" target="3">
          <mxGeometry relative="1" as="geometry">
            <Array as="points" />
          </mxGeometry>
        </mxCell>
        <mxCell id="10" value="Option 1a" style="curved=1;startArrow=none;endArrow=block;exitX=0.28;exitY=1;entryX=0.5;entryY=0;" edge="1" parent="1" source="3" target="4">
          <mxGeometry relative="1" as="geometry">
            <Array as="points">
              <mxPoint x="71" y="207" />
            </Array>
          </mxGeometry>
        </mxCell>
        <mxCell id="11" value="" style="curved=1;startArrow=none;endArrow=block;exitX=0.5;exitY=1;entryX=0.5;entryY=0;" edge="1" parent="1" source="4" target="5">
          <mxGeometry relative="1" as="geometry">
            <Array as="points" />
          </mxGeometry>
        </mxCell>
        <mxCell id="12" value="Option 2a" style="curved=1;startArrow=none;endArrow=block;exitX=0.5;exitY=1;entryX=0.5;entryY=-0.01;" edge="1" parent="1" source="5" target="6">
          <mxGeometry relative="1" as="geometry">
            <Array as="points" />
          </mxGeometry>
        </mxCell>
        <mxCell id="13" value="" style="curved=1;startArrow=none;endArrow=block;exitX=0.5;exitY=0.99;entryX=0.16;entryY=-0.01;" edge="1" parent="1" source="6" target="7">
          <mxGeometry relative="1" as="geometry">
            <Array as="points">
              <mxPoint x="71" y="637" />
            </Array>
          </mxGeometry>
        </mxCell>
        <mxCell id="14" value="Condition 2" style="curved=1;startArrow=none;endArrow=block;exitX=0.49;exitY=0.99;entryX=0.15;entryY=-0.01;" edge="1" parent="1" source="7" target="8">
          <mxGeometry relative="1" as="geometry">
            <Array as="points">
              <mxPoint x="139" y="764" />
            </Array>
          </mxGeometry>
        </mxCell>
        <mxCell id="15" value="Option 1b" style="curved=1;startArrow=none;endArrow=block;exitX=0.72;exitY=1;entryX=0.83;entryY=-0.01;" edge="1" parent="1" source="3" target="7">
          <mxGeometry relative="1" as="geometry">
            <Array as="points">
              <mxPoint x="207" y="207" />
              <mxPoint x="207" y="637" />
            </Array>
          </mxGeometry>
        </mxCell>
        <mxCell id="16" value="Option 2b" style="curved=1;startArrow=none;endArrow=block;exitX=1;exitY=0.74;entryX=1;entryY=0.2;" edge="1" parent="1" source="5" target="8">
          <mxGeometry relative="1" as="geometry">
            <Array as="points">
              <mxPoint x="274" y="510" />
              <mxPoint x="274" y="764" />
            </Array>
          </mxGeometry>
        </mxCell>
      </root>
    </mxGraphModel>
  </diagram>
</mxfile>
